<svg width="40" height="41" viewBox="0 0 40 41" fill="none" xmlns="http://www.w3.org/2000/svg">
<g clip-path="url(#clip0_642_5402)">
<circle cx="20" cy="21" r="19" fill="white"/>
<path d="M37.7246 11.761C37.6904 11.6978 37.6566 11.6327 37.624 11.5696C34.2933 5.23048 27.6442 0.896118 19.9998 0.896118C19.5492 0.896118 19.1002 0.910638 18.6545 0.943158C18.6336 0.943158 18.611 0.944438 18.5898 0.946438C15.2539 1.17976 12.0428 2.24628 9.22907 4.0618C6.72315 5.6778 4.62559 7.82372 3.07275 10.3377C3.07111 10.3409 3.06979 10.3442 3.06627 10.3474C2.68559 10.9669 2.33527 11.607 2.02071 12.2683C0.751474 14.9412 0.108154 17.8087 0.108154 20.7894C0.108154 31.7564 9.03115 40.6811 19.9998 40.6811C30.9688 40.6811 39.8918 31.7564 39.8918 20.7894C39.8918 17.5412 39.1089 14.4728 37.7246 11.761ZM10.547 6.10556C12.5875 4.78956 14.8649 3.92224 17.2445 3.54484L14.0398 22.5076L12.0057 12.0234C11.8923 11.4448 11.3879 11.03 10.7932 11.0397C10.205 11.0478 9.70703 11.4774 9.61163 12.0592L7.86443 22.7703L5.38431 11.2324C6.71991 9.19028 8.47519 7.44148 10.547 6.10556ZM2.53963 20.7894C2.53963 18.6741 2.90735 16.6252 3.63835 14.6785L6.83819 29.5699C6.95971 30.1323 7.45571 30.531 8.02619 30.531H8.05711C8.64083 30.5165 9.13167 30.0869 9.22739 29.5116L10.9147 19.1685L12.9278 29.5471C13.0399 30.1195 13.5404 30.531 14.1209 30.531H14.137C14.7236 30.523 15.2232 30.0968 15.3206 29.518L19.7471 3.33084C19.8313 3.32728 19.9157 3.32728 19.9998 3.32728C26.0069 3.32728 31.314 6.37628 34.4568 11.0074H21.8318C21.2368 11.0074 20.7292 11.4383 20.6322 12.0253L19.2186 20.5412C19.2173 20.556 19.2137 20.5705 19.2121 20.585L16.3449 37.8642C8.46583 36.18 2.53963 29.1628 2.53963 20.7894ZM19.9998 38.2497C19.5818 38.2497 19.165 38.2349 18.7535 38.2059L21.4412 22.0051H27.824L26.6521 29.1177C26.5938 29.4693 26.6944 29.8293 26.9245 30.1013C27.1562 30.374 27.495 30.5309 27.8518 30.5309H34.4829C31.343 35.1847 26.023 38.2497 19.9998 38.2497ZM35.854 28.0999H29.2844L31.1048 17.0565C31.2134 16.3935 30.7644 15.7679 30.1014 15.6593C29.4401 15.5507 28.8145 15.998 28.7042 16.661L28.2244 19.5736H21.8447L22.8625 13.4386H35.8346C36.8786 15.6738 37.4603 18.1652 37.4603 20.7894C37.4603 23.3991 36.885 25.874 35.854 28.0999Z" fill="url(#paint0_linear_642_5402)"/>
</g>
<defs>
<linearGradient id="paint0_linear_642_5402" x1="20" y1="0.896118" x2="20" y2="40.6811" gradientUnits="userSpaceOnUse">
<stop stop-color="#009688"/>
<stop offset="1" stop-color="#4DB6AC"/>
</linearGradient>
<clipPath id="clip0_642_5402">
<rect width="40" height="40" fill="white" transform="translate(0 0.896118)"/>
</clipPath>
</defs>
</svg>
