<svg width="52" height="52" viewBox="0 0 52 52" fill="none" xmlns="http://www.w3.org/2000/svg">
<g clip-path="url(#clip0_160_452)">
<path d="M51.2586 20.6781C50.9133 19.0125 50.4055 17.3875 49.7352 15.8031C49.0852 14.2594 48.2727 12.7969 47.3383 11.4156C46.4039 10.0344 45.3477 8.775 44.1898 7.59687C43.0117 6.41875 41.7117 5.34219 40.3711 4.44844C38.9898 3.51406 37.4867 2.70156 35.9836 2.05156C34.4195 1.38125 32.7945 0.873439 31.1086 0.528126C29.4024 0.182814 27.6555 0 25.8883 0C24.1211 0 22.3742 0.182814 20.668 0.528126C19.0023 0.873439 17.3774 1.38125 15.8133 2.05156C14.2695 2.70156 12.807 3.51406 11.4258 4.44844C10.0445 5.38281 8.76485 6.43906 7.60704 7.59687C6.44922 8.75469 5.37266 10.075 4.4586 11.4156C3.52422 12.7969 2.71173 14.2594 2.06173 15.8031C1.39141 17.3672 0.883601 18.9922 0.538289 20.6781C0.192976 22.3844 0.0101624 24.1313 0.0101624 25.8984C0.0101624 27.6656 0.192976 29.4125 0.538289 31.1188C0.883601 32.7844 1.39141 34.4094 2.06173 35.9734C2.71173 37.5172 3.52422 38.9797 4.4586 40.3812C5.39297 41.7625 6.44922 43.0219 7.60704 44.2C8.78516 45.3781 10.0852 46.4344 11.4258 47.3484C12.807 48.2828 14.3102 49.0953 15.8133 49.7453C17.3774 50.4156 19.0023 50.9234 20.668 51.2688C22.3742 51.6141 24.1211 51.7969 25.8883 51.7969C27.6555 51.7969 29.382 51.6141 31.1086 51.2688C32.7742 50.9234 34.3992 50.4156 35.9836 49.7453C37.5274 49.0953 38.9898 48.2828 40.3711 47.3484C41.7523 46.4141 43.032 45.3578 44.1898 44.2C45.368 43.0219 46.4242 41.7219 47.3383 40.3812C48.2727 39 49.0852 37.5172 49.7352 35.9734C50.4055 34.4094 50.9133 32.7844 51.2586 31.1188C51.6039 29.4125 51.7867 27.6656 51.7867 25.8984C51.7867 24.1313 51.6039 22.3844 51.2586 20.6781ZM25.8883 3.77813C31.4945 3.77813 36.593 5.87031 40.493 9.30312C40.432 9.38437 37.3039 14.1781 28.9352 17.3063C25.157 10.3594 20.993 4.83438 20.6477 4.3875C22.3336 4.00156 24.0805 3.77813 25.8883 3.77813ZM20.5461 4.42812C20.5664 4.40781 20.5461 4.40781 20.5461 4.42812ZM16.443 5.89062C16.7477 6.27656 20.8305 11.8422 24.6695 18.6469C14.0461 21.45 4.82422 21.3484 4.25547 21.3281C5.65704 14.4828 10.268 8.79531 16.443 5.89062ZM9.41485 40.6656C5.90079 36.7656 3.74766 31.5859 3.74766 25.8984C3.74766 25.6547 3.76797 25.4313 3.76797 25.2078C4.15391 25.2078 15.082 25.4719 26.4774 22.0594C27.107 23.2984 27.7164 24.5781 28.2852 25.8172C28.0008 25.8984 27.6961 25.9797 27.4117 26.0812C15.468 29.9406 9.41485 40.6656 9.41485 40.6656ZM25.8883 48.0187C20.7289 48.0187 16.0367 46.2516 12.2789 43.3266C12.3602 43.1641 16.6461 34.0437 29.6461 29.5141C29.6867 29.4937 29.7477 29.4734 29.7883 29.4734C32.8961 37.5578 34.1758 44.3219 34.5008 46.2719C31.8602 47.3891 28.9352 48.0187 25.8883 48.0187ZM38.2383 44.2406C38.0148 42.9 36.8367 36.4203 33.932 28.4375C41.082 27.3 47.2773 29.25 47.7242 29.4125C46.7492 35.5672 43.1945 40.8891 38.2383 44.2406ZM32.5914 24.9437C32.4289 24.5578 32.2664 24.1922 32.1039 23.8063C31.6367 22.7094 31.1492 21.6531 30.6211 20.5969C39.3555 17.0422 42.9102 11.9031 42.9508 11.8422C46.0383 15.6203 47.9273 20.4344 47.9883 25.675C47.6836 25.6141 40.1883 23.9891 32.5914 24.9437Z" fill="url(#paint0_linear_160_452)"/>
</g>
<defs>
<linearGradient id="paint0_linear_160_452" x1="47.416" y1="3.83431" x2="-2.62945" y2="47.9431" gradientUnits="userSpaceOnUse">
<stop stop-color="#8621D5"/>
<stop offset="1" stop-color="#220985" stop-opacity="0.5"/>
</linearGradient>
<clipPath id="clip0_160_452">
<rect width="52" height="52" fill="white"/>
</clipPath>
</defs>
</svg>
