<svg width="57" height="56" viewBox="0 0 57 56" fill="none" xmlns="http://www.w3.org/2000/svg">
<path d="M56.1667 27.6731C56.102 22.4009 54.5319 17.2569 51.6414 12.8471C48.751 8.43722 44.6608 4.94509 39.8523 2.78201C35.0435 0.618927 29.717 -0.125029 24.4998 0.637706C19.2826 1.40048 14.392 3.63816 10.4039 7.08732C6.41586 10.5365 3.49644 15.0534 1.98947 20.1061C0.482533 25.1589 0.450785 30.537 1.89803 35.6072C3.34527 40.6775 6.21119 45.2283 10.1583 48.7243C14.1054 52.2204 18.9693 54.5157 24.1771 55.3398V35.731H17.2605V27.6731H24.1771V21.5519C24.017 20.1286 24.1712 18.6875 24.6291 17.3303C25.087 15.9731 25.8371 14.733 26.8265 13.6974C27.816 12.6617 29.0205 11.8559 30.3554 11.3368C31.6903 10.8176 33.1231 10.5978 34.5521 10.6928C36.6264 10.7212 38.6959 10.9062 40.7425 11.2461V18.1628H37.2842C36.688 18.0876 36.0821 18.1473 35.5121 18.3377C34.9418 18.528 34.4217 18.844 33.9901 19.2623C33.5585 19.6806 33.2265 20.1906 33.0187 20.7544C32.8105 21.3184 32.732 21.9219 32.7883 22.5202V27.7423H40.4658L39.2208 35.8002H32.8229V55.1669C39.3588 54.1332 45.3079 50.791 49.5907 45.7467C53.8735 40.7024 56.2064 34.2903 56.1667 27.6731Z" fill="url(#paint0_linear_160_455)"/>
<defs>
<linearGradient id="paint0_linear_160_455" x1="51.4963" y1="4.41759" x2="-1.67975" y2="51.5927" gradientUnits="userSpaceOnUse">
<stop stop-color="#8621D5"/>
<stop offset="1" stop-color="#220985" stop-opacity="0.5"/>
</linearGradient>
</defs>
</svg>
