<svg width="54" height="54" viewBox="0 0 54 54" fill="none" xmlns="http://www.w3.org/2000/svg">
<path d="M27 51.0625C21.8404 51.0625 18.1275 51.06 15.2327 50.7792C12.3711 50.5018 10.5405 49.9687 9.07964 49.0507C7.40994 48.0017 5.99806 46.59 4.94891 44.9204C4.03125 43.4595 3.49786 41.6289 3.22078 38.7673C2.94005 35.8725 2.9375 32.1596 2.9375 27C2.9375 21.8404 2.94005 18.1275 3.22078 15.2327C3.49786 12.3711 4.03125 10.5405 4.94891 9.07964C5.99802 7.4099 7.4099 5.99802 9.07964 4.94891C10.5405 4.03125 12.3711 3.49786 15.2327 3.22078C18.1271 2.94005 21.8401 2.9375 27 2.9375C32.1596 2.9375 35.8725 2.94005 38.7673 3.22078C41.6289 3.49786 43.4595 4.03125 44.9204 4.94891C46.59 5.99806 48.0017 7.40994 49.0507 9.07964C49.9687 10.5405 50.5018 12.3711 50.7792 15.2327C51.06 18.1275 51.0625 21.8404 51.0625 27C51.0625 32.1596 51.06 35.8725 50.7792 38.7673C50.5018 41.6289 49.9687 43.4595 49.0507 44.9204C48.0017 46.5899 46.5899 48.0017 44.9204 49.0507C43.4595 49.9687 41.6289 50.5018 38.7673 50.7792C35.8725 51.06 32.1596 51.0625 27 51.0625Z" stroke="url(#paint0_linear_160_456)" stroke-width="4.375"/>
<path d="M27 37.9375C33.0406 37.9375 37.9375 33.0406 37.9375 27C37.9375 20.9594 33.0406 16.0625 27 16.0625C20.9594 16.0625 16.0625 20.9594 16.0625 27C16.0625 33.0406 20.9594 37.9375 27 37.9375Z" stroke="url(#paint1_linear_160_456)" stroke-width="4.375"/>
<path d="M41.2188 16.0625C43.0309 16.0625 44.5 14.5934 44.5 12.7812C44.5 10.9691 43.0309 9.5 41.2188 9.5C39.4066 9.5 37.9375 10.9691 37.9375 12.7812C37.9375 14.5934 39.4066 16.0625 41.2188 16.0625Z" fill="url(#paint2_linear_160_456)"/>
<defs>
<linearGradient id="paint0_linear_160_456" x1="47" y1="6.5" x2="0.5" y2="47.5" gradientUnits="userSpaceOnUse">
<stop stop-color="#8621D5"/>
<stop offset="1" stop-color="#220985" stop-opacity="0.5"/>
</linearGradient>
<linearGradient id="paint1_linear_160_456" x1="36.0909" y1="17.6818" x2="14.9545" y2="36.3182" gradientUnits="userSpaceOnUse">
<stop stop-color="#8621D5"/>
<stop offset="1" stop-color="#220985" stop-opacity="0.5"/>
</linearGradient>
<linearGradient id="paint2_linear_160_456" x1="43.946" y1="9.9858" x2="37.6051" y2="15.5767" gradientUnits="userSpaceOnUse">
<stop stop-color="#8621D5"/>
<stop offset="1" stop-color="#220985" stop-opacity="0.5"/>
</linearGradient>
</defs>
</svg>
