<svg width="55" height="55" viewBox="0 0 55 55" fill="none" xmlns="http://www.w3.org/2000/svg">
<path d="M38.4048 16.8837C38.4155 16.8837 38.4297 16.8837 38.444 16.8837C38.8163 16.8837 39.1618 16.9994 39.4451 17.1989L39.4397 17.1954C39.6463 17.3753 39.7853 17.6282 39.8191 17.9132V17.9186C39.8547 18.1359 39.8743 18.3852 39.8743 18.64C39.8743 18.7557 39.8708 18.8697 39.8619 18.9837V18.9677C39.4611 23.1875 37.7226 33.4208 36.8391 38.1447C36.465 40.145 35.7294 40.8147 35.0169 40.8789C33.469 41.0231 32.2933 39.8564 30.7935 38.8732C28.4458 37.3324 27.1188 36.3741 24.8406 34.8725C22.2061 33.1393 23.9143 32.1828 25.4142 30.626C25.8078 30.2163 32.6318 24.0087 32.7654 23.4458C32.7725 23.4119 32.7761 23.3745 32.7761 23.3353C32.7761 23.1964 32.7244 23.0699 32.6407 22.9737C32.5481 22.9132 32.4323 22.8793 32.3112 22.8793C32.231 22.8793 32.1544 22.8954 32.0832 22.9221L32.0867 22.9203C31.8516 22.9737 28.1015 25.4521 20.8363 30.3552C20.0437 30.9805 19.0426 31.3759 17.9525 31.4222H17.9418C16.3975 31.2352 14.9956 30.8914 13.665 30.4016L13.7968 30.4443C12.126 29.8992 10.799 29.6125 10.913 28.6898C10.9736 28.21 11.635 27.719 12.8973 27.2167C20.6731 23.8287 25.8583 21.5957 28.453 20.5174C31.3154 18.998 34.6339 17.7476 38.1234 16.9371L38.403 16.8819L38.4048 16.8837ZM27.3753 0.825684C12.5874 0.861309 0.61203 12.858 0.61203 27.6513C0.61203 42.466 12.6212 54.4769 27.4377 54.4769C42.2541 54.4769 54.2633 42.4677 54.2633 27.6513C54.2633 12.858 42.2879 0.861309 27.5036 0.825684H27.5C27.4584 0.825684 27.4169 0.825684 27.3753 0.825684Z" fill="url(#paint0_linear_160_434)"/>
<defs>
<linearGradient id="paint0_linear_160_434" x1="49.7343" y1="4.79727" x2="-2.10537" y2="50.5053" gradientUnits="userSpaceOnUse">
<stop stop-color="#8621D5"/>
<stop offset="1" stop-color="#220985" stop-opacity="0.5"/>
</linearGradient>
</defs>
</svg>
