<svg width="52" height="52" viewBox="0 0 52 52" fill="none" xmlns="http://www.w3.org/2000/svg">
<g clip-path="url(#clip0_101_578)">
<path fill-rule="evenodd" clip-rule="evenodd" d="M25.9925 0C11.6591 0 0 11.6624 0 25.9998C0 31.6858 1.8337 36.959 4.95084 41.2392L1.71122 50.8991L11.7048 47.7052C15.8151 50.4259 20.7203 52 26.0075 52C40.3409 52 52 40.3372 52 26.0002C52 11.6628 40.3409 0.000429789 26.0075 0.000429789L25.9925 0ZM18.7339 13.2067C18.2298 11.9993 17.8477 11.9536 17.0839 11.9225C16.8239 11.9074 16.5341 11.8923 16.2128 11.8923C15.2192 11.8923 14.1803 12.1827 13.5536 12.8245C12.7899 13.6041 10.8949 15.4227 10.8949 19.1525C10.8949 22.8822 13.6149 26.4894 13.9814 26.9941C14.3635 27.498 19.2842 35.2628 26.9244 38.4275C32.8991 40.9036 34.672 40.6741 36.0317 40.3838C38.0181 39.9558 40.5091 38.4879 41.1357 36.7153C41.7623 34.9419 41.7623 33.4286 41.5786 33.1077C41.3953 32.7867 40.8907 32.6038 40.127 32.2212C39.3632 31.839 35.6496 30.0047 34.9467 29.7601C34.2588 29.5004 33.602 29.5923 33.0828 30.3261C32.3492 31.3502 31.6312 32.3898 31.0503 33.0162C30.5919 33.5054 29.8427 33.5666 29.2165 33.3065C28.376 32.9554 26.0231 32.1293 23.1194 29.5462C20.873 27.5441 19.345 25.0529 18.9021 24.304C18.4588 23.54 18.8564 23.0961 19.2074 22.6837C19.5895 22.2097 19.9561 21.8736 20.3382 21.4302C20.7203 20.9871 20.9342 20.7576 21.1788 20.2378C21.4388 19.7335 21.2551 19.2137 21.0718 18.8315C20.8885 18.4493 19.3605 14.7196 18.7339 13.2067Z" fill="url(#paint0_linear_101_578)"/>
</g>
<defs>
<linearGradient id="paint0_linear_101_578" x1="47.6104" y1="3.84935" x2="-2.63377" y2="48.1506" gradientUnits="userSpaceOnUse">
<stop stop-color="#8621D5"/>
<stop offset="1" stop-color="#220985" stop-opacity="0.5"/>
</linearGradient>
<clipPath id="clip0_101_578">
<rect width="52" height="52" fill="white"/>
</clipPath>
</defs>
</svg>
